<mxfile host="app.diagrams.net" agent="Mozilla/5.0 (X11; Linux x86_64; rv:141.0) Gecko/20100101 Firefox/141.0" version="28.0.7">
  <diagram name="Page-1" id="gX1iZKvfPYksxvwvQngH">
    <mxGraphModel dx="402" dy="347" grid="1" gridSize="10" guides="1" tooltips="1" connect="1" arrows="1" fold="1" page="1" pageScale="1" pageWidth="850" pageHeight="1100" math="0" shadow="0">
      <root>
        <mxCell id="0" />
        <mxCell id="1" parent="0" />
        <mxCell id="KS05k8XOO2Dn_xqCU69P-1" value="" style="ellipse;whiteSpace=wrap;html=1;aspect=fixed;strokeColor=light-dark(#000000,#994C00);" vertex="1" parent="1">
          <mxGeometry x="40" y="240" width="200" height="200" as="geometry" />
        </mxCell>
        <mxCell id="KS05k8XOO2Dn_xqCU69P-2" value="" style="ellipse;whiteSpace=wrap;html=1;aspect=fixed;strokeColor=light-dark(#000000,#994C00);" vertex="1" parent="1">
          <mxGeometry x="50" y="250" width="180" height="180" as="geometry" />
        </mxCell>
        <mxCell id="KS05k8XOO2Dn_xqCU69P-3" value="" style="ellipse;whiteSpace=wrap;html=1;aspect=fixed;strokeColor=light-dark(#000000,#994C00);" vertex="1" parent="1">
          <mxGeometry x="57.5" y="257.5" width="165" height="165" as="geometry" />
        </mxCell>
        <mxCell id="KS05k8XOO2Dn_xqCU69P-4" value="" style="ellipse;whiteSpace=wrap;html=1;aspect=fixed;strokeColor=light-dark(#000000,#994C00);" vertex="1" parent="1">
          <mxGeometry x="65" y="265" width="150" height="150" as="geometry" />
        </mxCell>
        <mxCell id="KS05k8XOO2Dn_xqCU69P-5" value="" style="ellipse;whiteSpace=wrap;html=1;aspect=fixed;strokeColor=light-dark(#000000,#994C00);" vertex="1" parent="1">
          <mxGeometry x="107.5" y="307.5" width="65" height="65" as="geometry" />
        </mxCell>
        <mxCell id="KS05k8XOO2Dn_xqCU69P-9" value="" style="ellipse;whiteSpace=wrap;html=1;aspect=fixed;strokeColor=light-dark(#000000,#994C00);" vertex="1" parent="1">
          <mxGeometry x="75" y="275" width="130" height="130" as="geometry" />
        </mxCell>
        <mxCell id="KS05k8XOO2Dn_xqCU69P-10" value="" style="ellipse;whiteSpace=wrap;html=1;aspect=fixed;strokeColor=light-dark(#000000,#994C00);" vertex="1" parent="1">
          <mxGeometry x="85" y="285" width="110" height="110" as="geometry" />
        </mxCell>
        <mxCell id="KS05k8XOO2Dn_xqCU69P-11" value="" style="ellipse;whiteSpace=wrap;html=1;aspect=fixed;strokeColor=light-dark(#000000,#994C00);" vertex="1" parent="1">
          <mxGeometry x="95" y="295" width="90" height="90" as="geometry" />
        </mxCell>
        <mxCell id="KS05k8XOO2Dn_xqCU69P-6" value="" style="endArrow=none;html=1;rounded=0;dashed=1;dashPattern=8 8;" edge="1" parent="1" source="KS05k8XOO2Dn_xqCU69P-11">
          <mxGeometry width="50" height="50" relative="1" as="geometry">
            <mxPoint x="139.85" y="475" as="sourcePoint" />
            <mxPoint x="140" y="340" as="targetPoint" />
          </mxGeometry>
        </mxCell>
        <mxCell id="KS05k8XOO2Dn_xqCU69P-13" value="" style="ellipse;whiteSpace=wrap;html=1;aspect=fixed;strokeColor=light-dark(#000000,#994C00);" vertex="1" parent="1">
          <mxGeometry x="105" y="305" width="70" height="70" as="geometry" />
        </mxCell>
        <mxCell id="KS05k8XOO2Dn_xqCU69P-14" value="" style="ellipse;whiteSpace=wrap;html=1;aspect=fixed;strokeColor=light-dark(#000000,#994C00);" vertex="1" parent="1">
          <mxGeometry x="117.5" y="317.5" width="45" height="45" as="geometry" />
        </mxCell>
        <mxCell id="KS05k8XOO2Dn_xqCU69P-8" value="" style="endArrow=none;html=1;rounded=0;dashed=1;" edge="1" parent="1">
          <mxGeometry width="50" height="50" relative="1" as="geometry">
            <mxPoint x="140" y="340" as="sourcePoint" />
            <mxPoint x="240" y="450" as="targetPoint" />
          </mxGeometry>
        </mxCell>
        <mxCell id="KS05k8XOO2Dn_xqCU69P-12" value="" style="endArrow=none;html=1;rounded=0;dashed=1;" edge="1" parent="1">
          <mxGeometry width="50" height="50" relative="1" as="geometry">
            <mxPoint x="139.85" y="475" as="sourcePoint" />
            <mxPoint x="140" y="340" as="targetPoint" />
          </mxGeometry>
        </mxCell>
        <mxCell id="KS05k8XOO2Dn_xqCU69P-15" value="" style="endArrow=none;html=1;rounded=0;dashed=1;dashPattern=8 8;" edge="1" parent="1" target="KS05k8XOO2Dn_xqCU69P-14">
          <mxGeometry width="50" height="50" relative="1" as="geometry">
            <mxPoint x="140" y="339.85" as="sourcePoint" />
            <mxPoint x="240" y="450" as="targetPoint" />
          </mxGeometry>
        </mxCell>
        <mxCell id="KS05k8XOO2Dn_xqCU69P-16" value="" style="endArrow=classic;html=1;rounded=0;" edge="1" parent="1" target="KS05k8XOO2Dn_xqCU69P-1">
          <mxGeometry width="50" height="50" relative="1" as="geometry">
            <mxPoint x="309.17" y="307.5" as="sourcePoint" />
            <mxPoint x="250" y="320" as="targetPoint" />
          </mxGeometry>
        </mxCell>
        <mxCell id="KS05k8XOO2Dn_xqCU69P-17" value="Cylinder" style="text;strokeColor=none;align=center;fillColor=none;html=1;verticalAlign=middle;whiteSpace=wrap;rounded=0;" vertex="1" parent="1">
          <mxGeometry x="310" y="302.5" width="60" height="15" as="geometry" />
        </mxCell>
        <mxCell id="KS05k8XOO2Dn_xqCU69P-20" value="" style="shape=stencil(lVfJchpBDP2auapaUi/qs+P8h6uMAxUCLoyz/H1EJjNGghHm1jR6o+1p6YEf3tZPr6uB0tvxsP+++rV5Pq4H/jIQbXbr1WFz1NPAjwM/vOwPq2+H/fvuefz9+nSSPJ1+7H+evvB7xPUOtZxQlP6MNwVq+3fxdZTfbnZn8pgSpGQAiIB9GaEamgVQglYDQIVkTWIE5mWAdBAxgJxAAieEgayGLJBpGdA0KGSjVKEEJtUKyAagNynQUBo0q0F15kBDSZDRACQDyzKAszepN0h5GUAaVmtSl5AbpAZUC1B2BdRAAbYazuh1HUETE85UlMAmdZG9D1FYCbpzoU6JuSqfoFgm9QwVI/nkvq8eBfI40WyW1y8EWc4gjhUCGCRZo2ftkTqV63V7ClC3gAI9cEA9YPEAiWjXgJI3qQQpYAK0OZAGEjQYLtBckLRHBaTgBsWa1BF6DPA0zUARQMPqaq0CB6WjLTE7kyRsw1SBmq+cqOcpVbl4QA+oh+qieEALTNJuIt4FCbn9n8lnDYwDJqHnRS+h/MVk6xzWmg6Zi9qUoHYYirVfa7MF9rCv/RvyOE+MeYZoCy9BihnQZqDpaI5mCPn2VXGaKtdThn4kFJrKe2msJRukzFO1XgfUiWPztqANJIhSVaetSUrEHkSpKsts5aDyOpg5tU+j/pMrkgKchngJU3nX5XM4RJqqt/IcLiPtghcYFmabR8Akn6BHQ7n7Sk7xgkfTGvEhH20JOjBc+70hf7FAxvZoX8B7/O3zxPtcPLWv9XvypX2W7uHDvUv/bXk9fLwwXjbb7fhAOf/fv0j0anzN8ONf);lineShape=1;strokeColor=light-dark(transparent,#000099);" vertex="1" parent="1">
          <mxGeometry x="141.1956789801202" y="430.974618421899" width="3.2403522922741503" height="8.582655223210049" as="geometry" />
        </mxCell>
        <mxCell id="KS05k8XOO2Dn_xqCU69P-21" value="" style="shape=stencil(lVfLctswDPwaXTEAHyB5TtP/yEyc2lPXzjhum/x9oapSTcjaTm+yjCXxWCygIT687Z9ed0Pgt+vl/HX38/B83Q/x0xDC4bTfXQ5Xexri4xAfXs6X3ZfL+fvpefr9+jRajk/fzj/GE94nXCvUwogK/PHnDbX4+8Xnyf54ON3Y10ypdfbSKLRtQMlUawcIlQK4QTM17QCxUtZtQLYbuAOkRpq3AUlJpQMoUwaA2Kj0LqndUAEgUu5dqkKStgGWxJr7MlQqAgA6J3EBmEugDhIo9EELMzGDUt+5IYMbEhX2IWQUArWeSU2plm17plh6+0QV5NSic/4HUlSDORuLPc9cv19kkt6fWkkDIDbFvgC1wEYQJnEApQQaQRKJrgCgwlKJk3eJQYosRzH6mCOI2ZJUxCdVACmMRc0BjLjoBiOBAyRKKIZIyfFCIU+NSG1F7ICIVLxGWucgl8TkonhAA/pijbhqzQpCWCmkRdBQjqj0mm1jIsHW9PYZCiqvWi1SBPHyKl6TU2AfZlIuNLUhBRohz6fd9IGC1syr1sf2laQnhI0DRmKdfOuXAAOw+ZF6jzThChdfAhujBdwQ1ceQElQjm7LcJ9WmIpo3WedFYtkUZBaD+4K6isGGHEprWViw3IDLZlXqsypQKerC4tmeSUHb2DLlRiDPCn7f3naC7OxRRq1Lkj8/AP9NOV281tjAfxNONw4ELl6mOhJd/ivyv/l8Wl+A8282moXVcCSPMttPzALXNLMPfQFs5KMA/nO7/re9Pfxd5V8Ox+P0JXD7v1/97dX02RAffwE=);lineShape=1;strokeColor=light-dark(transparent,#000099);" vertex="1" parent="1">
          <mxGeometry x="146.4605685724914" y="431.01906431460327" width="3.847673683710557" height="7.048229857980035" as="geometry" />
        </mxCell>
        <mxCell id="KS05k8XOO2Dn_xqCU69P-22" value="" style="shape=stencil(lVfZctswDPwavWJ4g3xOk//ITJxaE9fOOE6Pvy9UlY4AWZvJmw4siQUWADnEu7f94+tuCO7tcj697H6NT5f9EL8NIYzH/e48XuRpiPdDvHs+nXffz6f349P8/vo4WU5PP04/pxV+z7jG1OqECu7P/KVSif8+PMz2h/G4sK+NalD2PlFhAIgUNCB44rAN4EzBK0B0FMs2oGRyRQGSowIAORFnBciect4GpETNKUARAIhSLP13B7Cj7ABAKGqXmPueNwFBOLDOWyIPXPISdZ3oVsmDKHlHrmlAo4AyTS5be0QhUy0re+BQtIzFPoGseWrNEk4gQo5YJ1lqwwH/3YpvpuihvfEnUk7IvmoNNU+1AkmQN+tjzSVyujCltpGoS9fXwv4/ow09RG/tA1Ko1MDKoQYCKpJuxUYIeeTjKmWBCuhFAkhGc6kX6hbAJkHChjiEHpOF6grisJZppQZcqrbZSdkwsJfWpRl452AdJErJblCgTnOyBCpKAjm2EcqwzmwKpNOAiF7ZLXKMOqnruy9ElFCKezQWddkg38JfspeBqQlw7RPxdgK8LQMWBiBCgbvCrvMvw9kxzT/NIZc+1W9rKNtjSCqU0PDIxOaUIEMadNPJYw0Q4UawA0cbVgl0BDtUT0lzYJiGqbvp0vewP0pz87pwRIlgfZGlEarrC9y2j9TY2KO6l7JKwa4PGot0wuqs/+A8IW3BFKbEB61frf8B85U2pVV9bd4bnXfVKT4ZBmtAhhN28khnuMBZMDHWA5CJEeMvHvY/t5eHj5vF83g4zBeT5X97E5FP8y0m3v8F);lineShape=1;strokeColor=light-dark(transparent,#000099);" vertex="1" parent="1">
          <mxGeometry x="149.94790629331533" y="430.40870863313785" width="6.464790194357312" height="7.983006052902736" as="geometry" />
        </mxCell>
        <mxCell id="KS05k8XOO2Dn_xqCU69P-23" value="" style="shape=stencil(lVfLctswDPwaXTEgwRfOafofmYlTa+raGcdpm78PVFWNCVnbyU2Wd0UssATIQe5e9g/PuyHyy+V8+r77NT5e9oN8GWIcj/vdebzY0yD3g9w9nc67b+fT6/Fx/v38MCGnpx+nn9MXfs88VaphYkV+m98UUvnz4uuMP4zHa7xQ1A4fmbhsE1qhUDqCRIq8TaiNWusIydbMgMBUuSNkIQUrFAvAaRbKuk3IiVIvugbStE1IhTj1BIUrSKDca1CmFrcJoXrR2pYgbxMS1b4OVvoM0hoCSS86sJUaVY40+xVaAFmiql6CAglWNqegUgFeZSouRZlaRXh2eKEG4mHKscebK4DeSGFV4wDiT5T7jdAaVeC6lSVahXqtwn+XvyKghJqHnGKLiEFE5lJn66bEyHTWjqrPUQYaYiB2JoqUwMYxgvSbXxMmMKU+S1pIkIa28oVlCaXVbOmMoYvVbxMiZfEEBRos6W2FB3XLq52pJECBEAevGDk7+PZoKUXNi1fxmxNBgpiiq0CE+EDJdRbrHahdU+ldarYOwBKfxYfiE9ri0lxvL8B+LFehBCosZlI3AwtsLqn4GZhtUIOQbGi2vgjJNnfbJthYLv0KolRA1Yr6tE5GB4SaSfs6Tw0KaGjsR1pajg638cFvnAj3WRMKfY4CNYRPS0Nf8Iy//+8w94EX0CfMlpEdHk18G3jZfx/ixeeHYV+ZBnb2ekGB7UCQ1ecT4dsysK/qBSw6nZZ7veYHNP94dabIy1DfXOBTx/H/4u3h4+z/NB4O89Xh+n9/V7BX8z1D7t8B);lineShape=1;strokeColor=light-dark(transparent,#000099);" vertex="1" parent="1">
          <mxGeometry x="157.07724455119262" y="429.2781909376853" width="4.427732040837757" height="7.637761110870717" as="geometry" />
        </mxCell>
        <mxCell id="KS05k8XOO2Dn_xqCU69P-24" value="" style="shape=stencil(lVfZbttADPwavRJL7v2cpv8RIE4t1LUDx73+vlSFVbWUNYXfFIWjXc4MDw/+6eP48n4YxH3crpevh5/j6+04+E+DyHg+Hq7jTZ8G/zz4p7fL9fDlevl+fp3/fn+ZIqenb5cf0xd+zbhayecJJe73/CZR4r8vPs/xp/G8ii+Vou/iOVP2AODIlQ4ghWrYB6RKOXSA4CjVfUCs5PoUolCVfUAoFLnPOVAAOegFuD8hB/LgBO8puQ5QhELZBwi3CzRAzeTACVw3gEIenMCJYuoBKj2glT2xt4AKWFJnuE18BEKTCzY+AGPofcRmHDJIYPP93DK6G69GNfnGRtlOPPfGrh7aTiWufbx6wqF8S+/SysSocKga/h0JcoRrdC8mVcFA7XMgl+wJDimQmyVXgAxSmDQINucCPKSk5mpFQEmLcm5cFKiAMtATSl/7NbX2sZeDGN0yVeAjZSltCoeBMXhpPitAQQBlvb8SO2UaILRSoj0hAaXVGSbnQgUIzZTEcoTGjnIarAiIoiW7lcoB1nI1tS9UgI3uxqNmGsn1Ps21zZQ9n2YzcpgEjRy27SJxG+33JePWnZexqayBWotsXeRzk/F+Q2I7NiVCV+TlAotPVTZgCyXR0OqbcfeWEd/7QojRtiO2H6kIaNkJxP19HBwhRZctb+JRi9cGLTYelfHUPR/5vlaJ5Afur1VouinmR7sCpwf4326nWN9VW1uWRxJUl1tAhEvFo/vy/+P14d9y/jaeTvNuv/6/Xeb11fxDwD//AQ==);lineShape=1;strokeColor=light-dark(transparent,#000099);" vertex="1" parent="1">
          <mxGeometry x="163.06708676814617" y="427.3259093749283" width="3.6810217225365207" height="8.184997095780561" as="geometry" />
        </mxCell>
        <mxCell id="KS05k8XOO2Dn_xqCU69P-25" value="" style="shape=stencil(lVfLctswDPwaXTEkwec5Tf8jM3FqTV074zht8/cBq5FjQPaqvskyVngtFuTAD2/bp9fNENzb6Xj4ufkzPp+2A38bQhj3281xPMnTwI8DP7wcjpsfx8P7/nn6/frULfvTr8Pv/oW/E64VKqGjgvuY3iTy7t+L75P9btxf2lcKWdl7N7+5DmjEXgMqlQgBLSpAaOT8bYB3jpxTCE4UGLvQgBigCwFkHVOUtFDWmWrRZS3kEwAwOQ3IkVK7DaiFss6heEogpCJJVw2o5MJtgAQQkgKIzwiqxJWYFUDYVUHSHKg1DWjkQUghU6wWgDz4RjFbQCsAECgvPERQVmm0ZoZMCAMHYW7S2V6+AFKW6TLxxLmPt+xNPAy7HCjqJjdPHsSfbX2qzAaaTnGgiV0rJQRoNgOhHcpYQjKSJB4cSEFoV50FFDBrQmxvmiCSAzQseqpsq1pA0pGJjQeGZRXByoZHiRKatTar7sVwMhBJFp6ZHKRKwEOoCw9CDTQKUiWzGr6k/Do3opXV7gKppNXtttJpKnVRJDhthknSBdS2xabqbUZytNA74RGwT3aLdKKCfO+1l4CMxNdIDshjZ5GWeNk6CVQ0nuXzvAhlJwCeJhkd3eMsigc8JJEwc+TJuEjV8nRl+wsgmeMCPl8IIGrAygmme9BEWjkkpXMR//MYlp3VvJWDngDuOklmb2Wb5+G+bh/spg1QUnOyRPJQKnKdPzfbOxhPWSiwIwb5lmwnAWtd9XYzr9gnq104Htnbhe/Id3lCxfXsSmgoCvslSmsIh/lw981l1V4evq5JL+NuN92yLv+31yp5NV3J+PET);lineShape=1;strokeColor=light-dark(transparent,#000099);" vertex="1" parent="1">
          <mxGeometry x="168.7290440203318" y="425.2793963158497" width="2.5475817850094624" height="9.176148685855578" as="geometry" />
        </mxCell>
        <mxCell id="KS05k8XOO2Dn_xqCU69P-26" value="" style="shape=stencil(lVfLctswDPwaXTEkwBfOafofmYlTa+raGcfp4+8LVSNVhO3N5CbTuyIB7gLQIA9v+6fX3cDh7XI+fd/9Gp8v+0G+DMzjcb87jxd7GuRxkIeX03n37Xx6Pz7Pv1+fJuT09OP0c3rD75mnjXKdWBz+zCuVJP5b+DrjD+Nxg2+JSurwsVIChCrE0hFsh5juE4pQ6QliO/B9Qs5U+yOluqzcJCSl0jpCNkIAhEw5doRSqGZAYIp9DDVRA0cSpVA6QrNXgLRyodjfm1paFRCEpN9hunpAiOqVobZSACEvB1ilEQIFkNcYqKjfolWgDcrs8bGBtC5K28SMDhSo9cLQQgmEvIa34hNVcGuBsns/kwId8ZLwFR9JAN6c0MtO7YQgP0rVqU6JAT4m4uQJAXgzNm81I6AILORyFQIjI2Qq1ecoCyBYNXGiM5mASzZCc4REinYo1FwMhQraIS0FbqPTCHxgQtIrIzAyc7nhNEUXx1f1xQhAGnWpbxt8AiEkitmHnECFjFe3Vj+wsqvAmkkgnl1GZSk2d85T3fkjNSDsT+PFJ7QFWOusD2tfjKz1BpBRs5ozczFdYyO4Vm6tN4MYRLz7rZMiXafoZSqJBMSQTRZuurB5A3UQXkJcmxRjXWfvfl6Cuo2vvoBFjFdv5QBboM0FbgALUNct+/NYS0ADXls62AYP3m8yrsHhUQux2pn8edBkpMUbJy4JuI1vflZjjLdhsMcLVZD/zUyzipoUEKYNnM2gBz47kX+Mt4f/4//LeDjMXw/b//3ngi3Nnxry+Bc=);lineShape=1;strokeColor=light-dark(transparent,#000099);" vertex="1" parent="1">
          <mxGeometry x="174.46850577117686" y="423.79112771135203" width="3.2926330064580456" height="8.361268022423886" as="geometry" />
        </mxCell>
        <mxCell id="KS05k8XOO2Dn_xqCU69P-27" value="" style="shape=stencil(lVfLctswDPwaXTEAwQd4TtP/yEycWlPXzjhum/x9oWqoirCETm6KgjWBxWJBDfzwdnx6PQwB327Xy/fD7/H5dhz4yxDCeD4eruNNnwZ+HPjh5XI9fLtefp6f579fn6bI6enH5df0C+8zrlaoZUIF/JjfRMj574uvc/xpPK/jI4TaxVNsv7AJkAIxdoCQAeM+oAhU6gAsEHkfkLWE1AESATsnZAbBDpADoOwDkgD2KRUC8gABuE9JqwppHxAFqE9JIpBTAzNw34daAB2WGFtfF4AA0z5A25RCD6it99sAgogWII40KIEkC6jOCYRWSwrIDksJSrQ1i9OGACFaUovDETYGl/jsKg+BTMERxNERQemHszJET3dWpzW4LauQuI+nxvB2PpputgBEh1Bso7sGOCdoCVamBMkbBNyoOToOppODwZKaHZI4ApsuJCBHFXpCNUXrLHkp0Z1OSzPBbZakzfpqENw+cPOrFaAEp9OL8BefR3SPoABU7RHiFFE24sljqTnoapjJcTyEkm0XxCl5KW/VZvbsqwl5paPq5PPpeGkqW3aCTrOTkK7u2Au15GbJe7oz46y7VLxRUPvsa8i6CB1OY7SAhBCconVzpr4LXNw1laqVkdLgLZGsN5i+aOJ2gdgGCJR+2NQvnIyUw9y3IbhLSu8S0STUlLsdH61QqTnadnxpN4kWj65Big4OmnjP7uROdr5RiNgti+4c6wIoYvP3ltqyU1f8eFdaFZiN93xrsql+gYRG2M6t5c5ZuClk74DP3cn/G68P/z4AXsbTaf5+WP/ffjDoq/ljgx//AA==);lineShape=1;strokeColor=light-dark(transparent,#000099);" vertex="1" parent="1">
          <mxGeometry x="181.17459973188852" y="420.7397589881249" width="2.4897341365503163" height="9.484258427202285" as="geometry" />
        </mxCell>
        <mxCell id="KS05k8XOO2Dn_xqCU69P-28" value="" style="shape=stencil(lVfLbttADPwaXQkuuc9zmv5HgDi1UdcOHKdt/j50Bdlayho0N2XD2SWHw4cHfXjbPr1uBuG38+n4c/Nn93zeDvptENkdtpvT7mxfgz4O+vByPG1+nI7vh+fx79eni+Xl69fx9+WGvyMuMBPzBSb8MR5FSvXfwfcRsN8dZoBWqdbOPii1BgBKsQdIoiTrgBqplA6glRS4VJRq6wBJqPE6IDOV2AFyoRDXAclI6l8olQS4FIWidoCaqeg6QANx71IrxIAlqVRyDzCXQAzGepAe0EgCAPCUphmgApdC8kHP1HUfwaTNP1FQIqgtXOICYqDYPEmc1u2ZoiM1UwUB8HTb1d44AP4HEudPpAByEImdP6bsDGrnjn1ACRBfzS1QBjoNdVLlHABesBQ09S4hTUiZPJ4BUA50UZzWchogVa8ez7KGKsEAS1mgJimNsqO1UAV5k7x4oU5SX6M1OFrtTfBCMFqTB6C+bdLgxQsVtWHS4O0V1ILeqc0IQuZJ+TNOBUh1MdgsyxUEbEPB2dskBP5/1T5cS/06EyJl0IyMIfdCMZmAbqeRYp/jbKMWlE7MxL1OU4AxpOSLU01XQHY5TDm6Tn9jCcRgHjud2n6RgUvZBmsPiHAO2qjXPmalAGSRrRD7+4UEcFoCqQtgOrhvH33pM2VAkG0eLmdMgtYpq+Pg7FH/tUVlaQ/4rNYVirNHZW/N2fHD0wX37fOUzhufGTRr6yJupxBKyL5NdN/0gNbTL2/M/wGwj9uC/rLb78f9fv5/v9Db0fhjQB8/AQ==);lineShape=1;strokeColor=light-dark(transparent,#000099);" vertex="1" parent="1">
          <mxGeometry x="186.83208554535315" y="418.9883430677845" width="2.3234527467676536" height="8.735862495655105" as="geometry" />
        </mxCell>
        <mxCell id="KS05k8XOO2Dn_xqCU69P-29" value="" style="shape=stencil(nVfLbttADPwaXYldcp/nNP2PAHFqo24cOE4ff18KqlyTkkdob7LMkTgccpYa5OF9//S2Gzi8X86nr7sfh+fLfpBPA/Phdb87Hy56NcjjIA8vp/Puy/n08fo8/X57GiPHq2+n7+MTfk64XonbiOLwa7qTqE03Pk/xx8Orje/JxEemVgCgUYkGwIFKAIBOYjPiilPq1IsBSCaR+4AYAoVgSQtl/AqxgMw4p0y5GkARiggQSbIBVKEQ7wOa6iQG0JgiYF06FVtXTbJlAMhUbUoqfgIp5YXUKn4FgNQpsAV02Bui3Wc53Gi5iuBCJflXoH6NhWL3AAYkKlXxpCPKaFbpGq8pAhkWvaqy/anaOgHKTjUhqUDmhWgRtnZMVOy49QBVHh3FAppOLMhIVILkARWUKFWS6FMKQORcZ0lvAIh0UQ5OBdURqKDTxt3LgGSugXihs4A+KjqMrrMLdZRS9CamnSponpmSa9U+u9S6DpHqYtg68CQJc2veAkBrxE45eEBC3aplLZ50BqRVJce5UgStFBZFvVr/nfjiLE+og3z+NT5ePfo6PJECqJAybla0yrCk6hjVUi56GILGU4vstqYbp6cC2AI2zmdebDEbK8C4UliX3FgyuHkdNtYYXhjAxqKkgG5TwpuYzo6rqsy6rMerzm4Rw2dto2QZx7kE68OfKFnCYd5Q1t0l+n0kzCKux+voFxePTn71x8XzUXzNy+ejfHTdcmaH+bbm64/rqXPu6o/1Uvd3ToT74T82/414vfj7mfFyOB6nr5Tb//1nid6aPmnk8Tc=);lineShape=1;strokeColor=light-dark(transparent,#000099);" vertex="1" parent="1">
          <mxGeometry x="192.1359546331248" y="414.1134470141451" width="1.2718408518850373" height="8.710096411842732" as="geometry" />
        </mxCell>
        <mxCell id="KS05k8XOO2Dn_xqCU69P-30" value="" style="shape=stencil(rVfbbtswDP0avxIUdX/uuv8o0HQJljVFmu7y96NnaDXp5BQD9mbLPBLFcw4lT/Hudf/wspuEXy/n09fdj8PjZT/FT5PI4Xm/Ox8u+jTF+ynePZ3Ouy/n09vz4/L+8jBHzk/fTt/nGX4uuC7U8owS/rWMZMrxz8DnJf54eF7HM+Vi4kOiIrcBrVBlA5BE3AGAqTcDiJlCvQ2omoBdIRXqCBAoW0BulBMARIo2pdJJAgA0kmgAOsKgSr0TVwPokaRBQLU89DymuA4oJJZoHWkMeGjUgwU0mJJuMTtApwhSKoVC8oAOeMhxKGcNAGpNTDVuUiq3AZHH5/WmwR5EU9qUtYIqhU7ZamkmDqQkmpJV6ywNBFC7uJTCcMj1TUcqjjge+r1e1jSUMwBNywr8kCtlm9KsLrBC1TYjfoWA2ox44hTQkIECNfFVQiv0uvGDjNZ2nWlmYsdcooQ8Wqm5LqCuBYbQlKtzkE4B6qpl8l2gQ/UpEYk9oGGqk63rqg631FQ2ri5gCdWrE4eatACu1RG+b1SoV/WcbExa8n8EaJVsfMtUQXyiasWn3RZ5WoaWVydWAvNvpKpHYkTiJrb56JmbEMkkloGYxkXiRn2qjddGm4ATwmbDei8JYMMh+4sMPj9D9RqK0Ada0Wq9LFSAM6V4o4WPTFCs9Rke50mIm4sXUJ8cSMTFIxcXHleoVTwgeNajzyeB9lurnz/A+VvynS5QB/ttf2907/wyar0qOHu1SPBU/ueL9ofx+vB+q386HI/LT8H6u/8L0KHlDyLe/wY=);lineShape=1;strokeColor=light-dark(transparent,#000099);" vertex="1" parent="1">
          <mxGeometry x="195.86506940727463" y="411.91632632476" width="1.1003458614699673" height="8.002540398676182" as="geometry" />
        </mxCell>
        <mxCell id="KS05k8XOO2Dn_xqCU69P-31" value="" style="shape=stencil(lVfLctswDPwaXTEEQYLkOU3/IzNxak1dO+O4r78vVA0TE7FA8yZLWAJYLh6e6OFt//S6m7x7u5xP33e/5+fLfqIvk/fzcb87zxd5muhxooeX03n37Xz6eXxef78+LZbL04/Tr+WEPyuuMARaUN79Xd9EwPL/xdfV/jAfr+0Rcm7ssQD6bUAuUFwDIAQmA5AhYQMIVI/Y8pBDm0IAjGYOHBsAEyAbAILckpQcZMsDg2tzSAkYtwHoHLiWphKAsuEi1c/vAAY0AAtNykOCZABSBsctoIAL2wBhkZIGZOPmQgJfWjF98HATIdoJRbswiU1VbO+ADJyMrKsSrljyBksIqHKOEI0CcjplEVcy4gnAvrX3VVu345Hj1DU7iAalnmu8FSBKCdatIZQ2JCnZbLSAmAHdCCCRbkqdkDID4aekDZbkknT12LSKzFRX6tybyEz1jI4wJADVxjrKyx5ISdWWNucqhDuLJ3rgwfrkeuCdLUDqp5AGWE0GXZ1Pd7Yx/ykiriW7UaBjjXjUXoZZG39nNLBuMJ3Zk4GGhttCaCujzvhE1C2sM6AXD2MrQN0o7twxCGJLkb3DBN2/JHxDcVLIbboeksVnBN9eAEIyghfvakK56vB2spJtUPZktesAAZW9VcIxArsBe5YNMg3Ek1i3XjvfHCCN8CnbHbb52vclbdm18dhyGN6Yu/by8LGev8yHw7rdX3/X67y8Wv8K0OM/);lineShape=1;strokeColor=light-dark(transparent,#000099);" vertex="1" parent="1">
          <mxGeometry x="199.29856796944944" y="411.69716807815473" width="0.9193475775846109" height="8.16295874273747" as="geometry" />
        </mxCell>
        <mxCell id="KS05k8XOO2Dn_xqCU69P-32" value="" style="endArrow=classic;html=1;rounded=0;entryX=0.533;entryY=0.602;entryDx=0;entryDy=0;entryPerimeter=0;" edge="1" parent="1" target="KS05k8XOO2Dn_xqCU69P-25">
          <mxGeometry width="50" height="50" relative="1" as="geometry">
            <mxPoint x="239.90000000000003" y="475" as="sourcePoint" />
            <mxPoint x="168.73000000000002" y="488.5" as="targetPoint" />
          </mxGeometry>
        </mxCell>
        <mxCell id="KS05k8XOO2Dn_xqCU69P-33" value="Sector" style="text;strokeColor=none;align=center;fillColor=none;html=1;verticalAlign=middle;whiteSpace=wrap;rounded=0;" vertex="1" parent="1">
          <mxGeometry x="240.73000000000002" y="470" width="60" height="15" as="geometry" />
        </mxCell>
      </root>
    </mxGraphModel>
  </diagram>
</mxfile>
